<svg width="53" height="37" viewBox="0 0 53 37" fill="none" xmlns="http://www.w3.org/2000/svg">
<path d="M13.3668 29.2632C12.898 29.7396 12.2857 29.979 11.6734 29.979C11.0611 29.979 10.4512 29.7396 9.98236 29.2632L0.699614 19.7822C0.453254 19.5306 0.269082 19.235 0.151882 18.9199C0.135139 18.8759 0.120788 18.8295 0.106437 18.783C0.0705594 18.6585 0.0418573 18.5339 0.0251144 18.4068C-0.00837145 18.1772 -0.00837145 17.9451 0.0251144 17.713C0.0442491 17.586 0.0705594 17.4614 0.106437 17.3368C0.120788 17.2904 0.135139 17.2464 0.151882 17.2C0.269082 16.8849 0.453254 16.5893 0.699614 16.3377L0.826382 16.2082L4.39741 12.5634C3.29955 13.6847 3.29955 15.5046 4.39741 16.6259L5.78946 18.0502L5.77989 18.0599L13.3668 25.8089C14.2996 26.7616 14.2996 28.3105 13.3668 29.2632Z" fill="url(#paint0_linear_3_10)"/>
<path d="M13.3673 10.3133L5.78997 18.05L4.39792 16.6258C3.30006 15.5045 3.30006 13.6845 4.39792 12.5632L9.98287 6.85652C10.9181 5.90378 12.4321 5.90378 13.3673 6.85652C14.3002 7.81171 14.3002 9.35808 13.3673 10.3133Z" fill="url(#paint1_linear_3_10)"/>
<path d="M0.836705 19.9215C0.79126 19.8799 0.745815 19.8384 0.70037 19.792C0.415741 19.5013 0.217218 19.1519 0.107193 18.7831C0.21961 19.1495 0.418133 19.4939 0.70037 19.7822L0.836705 19.9215Z" fill="#00AEEF"/>
<path d="M39.591 29.2632C40.0598 29.7396 40.6721 29.979 41.2844 29.979C41.8967 29.979 42.5067 29.7396 42.9755 29.2632L52.2582 19.7822C52.5046 19.5306 52.6887 19.235 52.8059 18.9199C52.8227 18.8759 52.837 18.8295 52.8514 18.783C52.8873 18.6585 52.916 18.5339 52.9327 18.4068C52.9662 18.1772 52.9662 17.9451 52.9327 17.713C52.9136 17.586 52.8873 17.4614 52.8514 17.3368C52.837 17.2904 52.8227 17.2464 52.8059 17.2C52.6887 16.8849 52.5046 16.5893 52.2582 16.3377L52.1314 16.2082L48.5604 12.5634C49.6583 13.6847 49.6583 15.5046 48.5604 16.6259L47.1684 18.0502L47.1779 18.0599L39.591 25.8089C38.6582 26.7616 38.6582 28.3105 39.591 29.2632Z" fill="url(#paint2_linear_3_10)"/>
<path d="M39.591 10.3133L47.1684 18.05L48.5604 16.6258C49.6583 15.5045 49.6583 13.6845 48.5604 12.5632L42.9755 6.85652C42.0403 5.90378 40.5262 5.90378 39.591 6.85652C38.6582 7.81171 38.6582 9.35808 39.591 10.3133Z" fill="url(#paint3_linear_3_10)"/>
<path d="M52.1219 19.9215C52.1674 19.8799 52.2128 19.8384 52.2582 19.792C52.5429 19.5013 52.7414 19.1519 52.8514 18.7831C52.739 19.1495 52.5405 19.4939 52.2582 19.7822L52.1219 19.9215Z" fill="#00AEEF"/>
<path d="M16.7799 17.7277C17.244 18.1845 17.8443 18.4117 18.4399 18.4117C19.0665 18.4117 19.6932 18.1625 20.162 17.6642L33.0803 4.13768C33.9964 3.16784 33.9701 1.62147 33.0182 0.683386C32.1212 -0.200952 30.7196 -0.222939 29.794 0.595441C29.7389 0.6443 29.6863 0.693158 29.6361 0.746902L21.279 9.47059L16.7225 14.2709C15.8041 15.2408 15.8328 16.7871 16.7823 17.7252L16.7799 17.7277Z" fill="url(#paint4_linear_3_10)"/>
<path d="M19.925 35.4265C20.3891 35.8833 20.9894 36.1105 21.585 36.1105C22.2116 36.1105 22.8383 35.8613 23.3071 35.363L36.2255 21.8365C37.1415 20.8667 37.1152 19.3203 36.1633 18.3822C35.2663 17.4979 33.8647 17.4759 32.9391 18.2943C32.884 18.3431 32.8314 18.392 32.7812 18.4457L24.4241 27.1694L19.8676 31.9698C18.9492 32.9396 18.9779 34.486 19.9274 35.4241L19.925 35.4265Z" fill="url(#paint5_linear_3_10)"/>
<defs>
<linearGradient id="paint0_linear_3_10" x1="2" y1="17.0018" x2="11.5" y2="30.0018" gradientUnits="userSpaceOnUse">
<stop stop-color="#5C80FC"/>
<stop offset="1" stop-color="#60B7EC"/>
</linearGradient>
<linearGradient id="paint1_linear_3_10" x1="4.0003" y1="15.5018" x2="14.0003" y2="12.0018" gradientUnits="userSpaceOnUse">
<stop stop-color="#6018D7"/>
<stop offset="1" stop-color="#9547F0"/>
</linearGradient>
<linearGradient id="paint2_linear_3_10" x1="49.9998" y1="18.0021" x2="41.8718" y2="29.5605" gradientUnits="userSpaceOnUse">
<stop stop-color="#6018D7"/>
<stop offset="1" stop-color="#9547F0"/>
</linearGradient>
<linearGradient id="paint3_linear_3_10" x1="43.9998" y1="13.0021" x2="40.1077" y2="5.679" gradientUnits="userSpaceOnUse">
<stop stop-color="#5C80FC"/>
<stop offset="1" stop-color="#60B7EC"/>
</linearGradient>
<linearGradient id="paint4_linear_3_10" x1="22.9998" y1="19.0019" x2="27.9558" y2="4.47519" gradientUnits="userSpaceOnUse">
<stop stop-color="#6018D7"/>
<stop offset="1" stop-color="#60B1EE"/>
</linearGradient>
<linearGradient id="paint5_linear_3_10" x1="31.5003" y1="18.002" x2="26.5132" y2="27.5321" gradientUnits="userSpaceOnUse">
<stop stop-color="#6018D7"/>
<stop offset="1" stop-color="#9547F0"/>
</linearGradient>
</defs>
</svg>
