<svg width="169" height="39" viewBox="0 0 169 39" fill="none" xmlns="http://www.w3.org/2000/svg">
<path d="M62.484 11.932C62.484 10.8227 62.51 9.96467 62.562 9.358C62.6486 8.162 62.8653 7.26933 63.212 6.68C63.42 6.35067 63.706 6.15133 64.07 6.082C64.434 5.99533 64.772 6.04733 65.084 6.238C66.0893 5.99533 67.112 5.952 68.152 6.108C69.192 6.264 70.1713 6.576 71.09 7.044C72.0433 7.54667 72.7626 8.24 73.248 9.124C73.7506 9.99067 73.9846 10.9613 73.95 12.036C73.898 13.0933 73.638 14.1247 73.17 15.13C72.702 16.1353 72.0866 17.0367 71.324 17.834C70.7 18.4927 69.946 19.082 69.062 19.602C68.1953 20.122 67.32 20.486 66.436 20.694C66.4706 23.1553 66.514 25.374 66.566 27.35C66.566 27.8873 66.3666 28.3467 65.968 28.728C65.5866 29.1093 65.136 29.3 64.616 29.3C64.0786 29.3 63.6193 29.1093 63.238 28.728C62.874 28.3467 62.6833 27.8873 62.666 27.35C62.5966 23.866 62.5446 20.4427 62.51 17.08C62.4926 15.7453 62.484 14.0293 62.484 11.932ZM69.868 8.5C68.8626 8.032 67.5626 7.78933 65.968 7.772C66.0893 8.20533 66.176 8.786 66.228 9.514C66.2626 10.1727 66.2886 11.022 66.306 12.062C66.358 14.766 66.384 16.4387 66.384 17.08C66.384 17.184 66.384 17.34 66.384 17.548C66.4013 17.7387 66.41 17.886 66.41 17.99C66.9646 17.834 67.372 17.6953 67.632 17.574C68.3773 17.2273 69.0533 16.82 69.66 16.352C71.0813 15.208 71.8786 13.8473 72.052 12.27C72.2253 10.502 71.4973 9.24533 69.868 8.5ZM80.9369 27.064C81.2142 27.168 81.3529 27.3673 81.3529 27.662C81.3529 27.9393 81.2142 28.13 80.9369 28.234C80.8329 28.2687 80.7289 28.2947 80.6249 28.312C80.5209 28.3293 80.4082 28.338 80.2869 28.338C80.1829 28.338 80.0875 28.3293 80.0009 28.312C79.9142 28.312 79.8015 28.3033 79.6629 28.286C79.5415 28.2687 79.4375 28.26 79.3509 28.26C79.2642 28.26 78.8309 28.286 78.0509 28.338C77.9122 28.338 77.7822 28.338 77.6609 28.338C77.6609 28.338 77.6522 28.338 77.6349 28.338C77.1149 28.338 76.6469 28.1473 76.2309 27.766C75.8322 27.3673 75.6502 26.908 75.6849 26.388C75.8409 23.8053 75.9709 21.266 76.0749 18.77C76.1442 17.0193 76.2222 15.728 76.3089 14.896C76.3262 14.792 76.3435 14.5493 76.3609 14.168C76.3955 13.7867 76.4215 13.492 76.4389 13.284C76.4735 13.076 76.5255 12.816 76.5949 12.504C76.6642 12.192 76.7595 11.9233 76.8809 11.698C77.0022 11.4727 77.1495 11.282 77.3229 11.126C77.6002 10.8833 77.9035 10.762 78.2329 10.762C78.5622 10.762 78.8655 10.8833 79.1429 11.126C79.3162 11.282 79.4635 11.4813 79.5849 11.724C79.7062 11.9493 79.7929 12.2353 79.8449 12.582C79.8969 12.9113 79.9315 13.1713 79.9489 13.362C79.9662 13.5353 79.9749 13.8473 79.9749 14.298C79.9922 14.7487 80.0009 15 80.0009 15.052C80.0355 15.9187 80.0182 17.158 79.9489 18.77C79.8449 21.266 79.7149 23.8053 79.5589 26.388C79.5415 26.596 79.4982 26.7953 79.4289 26.986C80.1569 26.934 80.6595 26.96 80.9369 27.064ZM90.0937 16.43C91.3937 17.262 92.0437 18.8307 92.0437 21.136C92.0264 22.8173 91.7751 24.594 91.2897 26.466C91.1511 26.9687 90.8391 27.3587 90.3537 27.636C89.8857 27.896 89.4004 27.9567 88.8977 27.818C88.6377 27.7487 88.4037 27.636 88.1957 27.48C87.7451 27.8093 87.2944 28.0607 86.8437 28.234C86.4104 28.4247 85.9337 28.494 85.4137 28.442C84.8937 28.39 84.4257 28.182 84.0097 27.818C83.6284 27.4713 83.3684 27.0293 83.2297 26.492C83.1084 25.9547 83.0911 25.4173 83.1777 24.88C83.2817 24.3427 83.4724 23.8487 83.7497 23.398C84.1484 22.7393 84.7117 22.254 85.4397 21.942C86.1677 21.63 86.8957 21.6127 87.6237 21.89C87.7971 21.9593 87.9531 22.0373 88.0917 22.124C88.0917 22.1067 88.0917 22.098 88.0917 22.098C88.0917 22.0287 88.1004 21.8467 88.1177 21.552C88.1524 21.2573 88.1697 21.032 88.1697 20.876C88.1871 20.72 88.1957 20.5207 88.1957 20.278C88.2131 20.0353 88.2131 19.8273 88.1957 19.654C88.1784 19.4807 88.1437 19.3247 88.0917 19.186C88.0397 18.9953 87.8924 18.8393 87.6497 18.718C87.4244 18.5967 87.1297 18.562 86.7657 18.614C86.4537 18.6487 86.1591 18.7527 85.8817 18.926C85.6217 19.0993 85.4051 19.2813 85.2317 19.472C85.0757 19.6627 84.8937 19.914 84.6857 20.226C84.4777 20.538 84.1657 20.6507 83.7497 20.564C83.3337 20.4773 83.1431 20.226 83.1777 19.81C83.2644 19.1167 83.5417 18.4493 84.0097 17.808C84.4951 17.1493 85.0584 16.6467 85.6997 16.3C86.3757 15.936 87.1124 15.7627 87.9097 15.78C88.7071 15.78 89.4351 15.9967 90.0937 16.43ZM87.6237 25.062C87.5717 24.386 87.4157 23.944 87.1557 23.736C86.8437 23.58 86.5491 23.554 86.2717 23.658C85.9944 23.762 85.7604 23.9527 85.5697 24.23C85.4657 24.386 85.3704 24.5853 85.2837 24.828C85.1971 25.0533 85.1364 25.296 85.1017 25.556C85.0844 25.816 85.1537 26.0153 85.3097 26.154C85.3617 26.206 85.4224 26.2407 85.4917 26.258C85.5784 26.2753 85.6564 26.2667 85.7257 26.232C85.8124 26.1973 85.8817 26.1713 85.9337 26.154C86.0031 26.1193 86.0811 26.0587 86.1677 25.972C86.2544 25.8853 86.3151 25.8247 86.3497 25.79C86.4017 25.7553 86.4711 25.6947 86.5577 25.608C86.6444 25.504 86.6877 25.452 86.6877 25.452C86.9477 25.1747 87.2597 25.0447 87.6237 25.062ZM103.978 19.082C103.978 19.8793 103.943 21.292 103.874 23.32C103.874 23.5453 103.874 23.9007 103.874 24.386C103.891 24.8713 103.891 25.27 103.874 25.582C103.874 25.8767 103.839 26.2233 103.77 26.622C103.7 27.0207 103.605 27.3673 103.484 27.662C103.258 28.0607 102.92 28.2167 102.47 28.13C102.036 28.0433 101.75 27.8007 101.612 27.402C101.542 27.246 101.499 27.0727 101.482 26.882C101.464 26.674 101.456 26.5093 101.456 26.388C101.456 26.2667 101.464 26.076 101.482 25.816C101.499 25.5387 101.508 25.3653 101.508 25.296C101.542 24.36 101.568 23.554 101.586 22.878C101.655 20.902 101.69 19.5067 101.69 18.692C101.69 18.4147 101.69 18.25 101.69 18.198C101.672 17.9727 101.646 17.834 101.612 17.782C101.594 17.7473 101.586 17.7213 101.586 17.704C101.568 17.704 101.542 17.7127 101.508 17.73C101.404 17.7473 101.308 17.782 101.222 17.834C101.135 17.8687 101.048 17.9293 100.962 18.016C100.875 18.0853 100.788 18.1633 100.702 18.25C100.632 18.3193 100.554 18.4233 100.468 18.562C100.398 18.6833 100.338 18.7873 100.286 18.874C100.234 18.9433 100.164 19.056 100.078 19.212C100.008 19.3507 99.9564 19.4547 99.9217 19.524C99.9044 19.576 99.8611 19.68 99.7917 19.836C99.7224 19.9747 99.6877 20.0527 99.6877 20.07C98.9251 21.7167 98.2577 23.944 97.6857 26.752C97.6511 27.0467 97.6077 27.3067 97.5557 27.532C97.4691 27.8613 97.2611 28.1127 96.9317 28.286C96.6197 28.4593 96.2904 28.5113 95.9437 28.442C95.6144 28.3727 95.3717 28.1733 95.2157 27.844C95.1637 27.7053 95.1031 27.558 95.0337 27.402C94.9817 27.2287 94.9384 27.09 94.9037 26.986C94.8864 26.8647 94.8604 26.6913 94.8257 26.466C94.7911 26.2407 94.7651 26.102 94.7477 26.05C94.7477 25.9807 94.7304 25.8073 94.6957 25.53C94.6611 25.2527 94.6437 25.1053 94.6437 25.088C94.5571 24.2907 94.4877 23.4847 94.4357 22.67C94.3144 21.0753 94.3404 19.3853 94.5137 17.6C94.5657 17.08 94.7564 16.6467 95.0857 16.3C95.4151 15.936 95.8397 15.754 96.3597 15.754C96.8451 15.754 97.2871 15.9447 97.6857 16.326C98.0844 16.69 98.2664 17.1147 98.2317 17.6C98.1797 18.1027 98.1277 18.7007 98.0757 19.394C98.0757 19.3767 98.0757 19.3593 98.0757 19.342C98.0931 19.3247 98.1017 19.3073 98.1017 19.29C98.2751 18.8047 98.4744 18.3453 98.6997 17.912C98.9424 17.4787 99.2371 17.054 99.5837 16.638C99.9304 16.2047 100.338 15.9013 100.806 15.728C101.274 15.5373 101.768 15.5113 102.288 15.65C102.652 15.754 102.955 15.9273 103.198 16.17C103.44 16.3953 103.614 16.6813 103.718 17.028C103.822 17.3747 103.891 17.704 103.926 18.016C103.96 18.3107 103.978 18.666 103.978 19.082ZM108.502 15.754C108.987 15.754 109.429 15.9447 109.828 16.326C110.226 16.69 110.408 17.1147 110.374 17.6C110.252 18.848 110.114 20.4947 109.958 22.54C109.906 23.3893 109.871 24.2387 109.854 25.088C109.854 25.2787 109.854 25.4867 109.854 25.712C109.854 25.92 109.845 26.128 109.828 26.336C109.828 26.5267 109.819 26.7347 109.802 26.96C109.784 27.168 109.75 27.3587 109.698 27.532C109.611 27.8613 109.403 28.1127 109.074 28.286C108.762 28.4593 108.432 28.5113 108.086 28.442C107.756 28.3727 107.514 28.1733 107.358 27.844C107.306 27.7053 107.245 27.558 107.176 27.402C107.124 27.2287 107.08 27.09 107.046 26.986C107.028 26.8647 107.002 26.6913 106.968 26.466C106.933 26.2407 106.907 26.102 106.89 26.05C106.89 25.9807 106.872 25.8073 106.838 25.53C106.803 25.2527 106.786 25.1053 106.786 25.088C106.699 24.2907 106.63 23.4847 106.578 22.67C106.456 21.0753 106.482 19.3853 106.656 17.6C106.708 17.08 106.898 16.6467 107.228 16.3C107.557 15.936 107.982 15.754 108.502 15.754ZM106.942 13.31C106.89 13.1367 106.855 12.9113 106.838 12.634C106.82 12.3393 106.89 12.062 107.046 11.802C107.219 11.5247 107.427 11.308 107.67 11.152C108.086 10.9093 108.528 10.8487 108.996 10.97C109.412 11.0913 109.75 11.36 110.01 11.776C110.166 12.036 110.244 12.322 110.244 12.634C110.244 12.946 110.166 13.232 110.01 13.492C109.975 13.5787 109.906 13.6827 109.802 13.804C109.698 13.9773 109.602 14.0987 109.516 14.168C109.325 14.3587 109.108 14.4887 108.866 14.558C108.658 14.61 108.458 14.6187 108.268 14.584C108.077 14.5667 107.895 14.506 107.722 14.402C107.496 14.2633 107.314 14.0813 107.176 13.856C107.141 13.8213 107.063 13.6393 106.942 13.31ZM119.875 24.152C120.083 23.9093 120.335 23.866 120.629 24.022C120.924 24.1607 121.08 24.3687 121.097 24.646C121.115 25.27 120.681 26.0933 119.797 27.116C119.173 27.8267 118.471 28.2947 117.691 28.52C116.721 28.8147 115.811 28.6847 114.961 28.13C114.129 27.5753 113.523 26.8127 113.141 25.842C112.725 24.802 112.509 23.7013 112.491 22.54C112.474 21.3787 112.691 20.278 113.141 19.238C113.679 18.042 114.476 17.158 115.533 16.586C116.608 15.9967 117.726 15.962 118.887 16.482C119.355 16.69 119.65 17.0887 119.771 17.678C119.91 18.25 119.849 18.744 119.589 19.16C119.347 19.5587 119.017 19.8273 118.601 19.966C118.203 20.1047 117.778 20.1133 117.327 19.992L117.145 20.096C117.163 20.096 117.189 20.0873 117.223 20.07C117.102 20.174 116.998 20.2867 116.911 20.408C116.669 20.6853 116.461 21.084 116.287 21.604C115.906 22.644 115.793 23.7533 115.949 24.932C116.019 25.4347 116.201 25.9027 116.495 26.336C116.79 26.752 117.171 26.8907 117.639 26.752C117.882 26.6827 118.116 26.544 118.341 26.336C118.584 26.1107 118.775 25.8853 118.913 25.66C119.069 25.4173 119.234 25.1487 119.407 24.854C119.598 24.542 119.754 24.308 119.875 24.152ZM117.197 19.966C117.093 19.9313 116.998 19.8967 116.911 19.862C116.998 19.914 117.093 19.9487 117.197 19.966ZM130.578 23.554C130.752 24.1607 130.769 24.8367 130.63 25.582C130.492 26.3273 130.197 26.934 129.746 27.402C129.348 27.7833 128.871 28.078 128.316 28.286C127.762 28.5113 127.198 28.6153 126.626 28.598C125.586 28.5633 124.685 28.1127 123.922 27.246C123.177 26.362 122.917 25.4173 123.142 24.412C123.212 24.1173 123.402 23.9527 123.714 23.918C124.044 23.866 124.278 23.97 124.416 24.23C124.451 24.2993 124.503 24.4033 124.572 24.542C124.642 24.6807 124.694 24.7933 124.728 24.88C124.78 24.9667 124.841 25.0793 124.91 25.218C124.997 25.3567 125.075 25.452 125.144 25.504C125.214 25.556 125.3 25.6253 125.404 25.712C125.508 25.7987 125.612 25.842 125.716 25.842C125.82 25.8247 125.942 25.8073 126.08 25.79C126.306 25.738 126.514 25.5993 126.704 25.374C126.687 25.374 126.687 25.3567 126.704 25.322C126.722 25.2873 126.739 25.244 126.756 25.192C126.791 25.1227 126.808 25.0793 126.808 25.062C126.843 24.958 126.852 24.8193 126.834 24.646C126.8 24.3513 126.687 24.0827 126.496 23.84C126.306 23.58 126.02 23.2853 125.638 22.956C124.876 22.2627 124.191 21.5347 123.584 20.772C122.856 19.8533 122.666 18.9433 123.012 18.042C123.342 17.1927 123.948 16.5947 124.832 16.248C125.387 16.04 126.219 16.0313 127.328 16.222C128.316 16.378 129.079 16.7247 129.616 17.262C129.824 17.4527 129.876 17.678 129.772 17.938C129.686 18.198 129.53 18.3627 129.304 18.432C129.079 18.484 128.845 18.4233 128.602 18.25C128.377 18.0073 128.169 17.8167 127.978 17.678C127.788 17.5393 127.571 17.418 127.328 17.314C127.103 17.21 126.86 17.1667 126.6 17.184C126.34 17.184 126.063 17.2533 125.768 17.392C125.162 17.6693 124.884 17.9727 124.936 18.302C124.988 18.5967 125.248 18.8567 125.716 19.082C125.872 19.1513 126.106 19.2553 126.418 19.394C126.748 19.5327 127.008 19.6453 127.198 19.732C127.389 19.8187 127.614 19.94 127.874 20.096C128.134 20.2347 128.368 20.3907 128.576 20.564C129.616 21.3613 130.284 22.358 130.578 23.554ZM155.072 23.788C155.297 23.5107 155.583 23.476 155.93 23.684C156.294 23.892 156.415 24.1607 156.294 24.49C156.138 24.8713 155.947 25.244 155.722 25.608C155.514 25.972 155.263 26.31 154.968 26.622C154.691 26.934 154.387 27.2113 154.058 27.454C153.746 27.6967 153.391 27.896 152.992 28.052C152.593 28.2253 152.186 28.338 151.77 28.39C150.591 28.5113 149.629 28.2687 148.884 27.662C148.468 27.3153 148.121 26.8733 147.844 26.336C147.584 25.7813 147.411 25.2007 147.324 24.594C147.151 23.4673 147.203 22.3147 147.48 21.136C147.775 19.9573 148.251 18.8827 148.91 17.912C149.759 16.6987 150.669 15.962 151.64 15.702C152.281 15.5287 152.931 15.5633 153.59 15.806C154.266 16.0313 154.743 16.4387 155.02 17.028C155.401 17.5827 155.583 18.1807 155.566 18.822C155.549 19.4633 155.358 20.07 154.994 20.642C154.647 21.162 154.153 21.6127 153.512 21.994C152.871 22.3753 152.195 22.6613 151.484 22.852C151.345 22.904 151.207 22.9127 151.068 22.878C150.999 23.2247 150.955 23.5627 150.938 23.892C150.869 24.8973 150.834 25.5387 150.834 25.816C150.851 26.1973 150.955 26.44 151.146 26.544C151.354 26.648 151.64 26.648 152.004 26.544C152.264 26.4747 152.515 26.3793 152.758 26.258C153.001 26.1193 153.235 25.9373 153.46 25.712C153.685 25.4867 153.867 25.296 154.006 25.14C154.145 24.9667 154.335 24.7327 154.578 24.438C154.821 24.126 154.985 23.9093 155.072 23.788ZM153.642 18.796L153.616 18.822H153.668C153.651 18.8047 153.642 18.796 153.642 18.796ZM151.952 20.382C151.813 20.6247 151.683 20.8933 151.562 21.188C152.359 20.9453 152.897 20.668 153.174 20.356C153.451 20.044 153.625 19.732 153.694 19.42C153.729 19.2813 153.737 19.1513 153.72 19.03C153.633 19.0473 153.547 19.056 153.46 19.056C153.269 19.0907 153.061 19.1773 152.836 19.316C152.559 19.4893 152.264 19.8447 151.952 20.382ZM167.347 16.066C167.416 15.8233 167.564 15.6847 167.789 15.65C168.032 15.598 168.24 15.65 168.413 15.806C168.586 15.962 168.638 16.1613 168.569 16.404C168.482 16.6987 168.37 17.002 168.231 17.314C168.11 17.6087 167.962 17.9553 167.789 18.354C167.616 18.7353 167.486 19.0213 167.399 19.212C167.226 19.628 167.035 20.07 166.827 20.538C166.619 21.006 166.385 21.526 166.125 22.098C165.865 22.6527 165.666 23.086 165.527 23.398C165.458 23.5713 165.319 23.8747 165.111 24.308C164.92 24.724 164.773 25.0447 164.669 25.27C164.617 25.4087 164.539 25.6167 164.435 25.894C164.348 26.1713 164.279 26.3793 164.227 26.518C164.21 26.5353 164.201 26.5527 164.201 26.57V26.596C164.201 27.2547 163.889 27.714 163.265 27.974C162.988 28.078 162.728 28.13 162.485 28.13C162.26 28.13 162.034 28.0693 161.809 27.948C161.601 27.8093 161.41 27.662 161.237 27.506C161.081 27.3327 160.925 27.1333 160.769 26.908C160.613 26.6653 160.483 26.44 160.379 26.232C160.275 26.024 160.18 25.8073 160.093 25.582C160.006 25.3393 159.92 25.088 159.833 24.828C159.764 24.5507 159.694 24.2733 159.625 23.996C159.573 23.7187 159.521 23.4673 159.469 23.242C159.417 22.9993 159.356 22.722 159.287 22.41C159.235 22.098 159.183 21.838 159.131 21.63C159.01 21.1273 158.654 19.8707 158.065 17.86C157.909 17.3573 157.97 16.8633 158.247 16.378C158.524 15.8927 158.914 15.5807 159.417 15.442C159.764 15.3553 160.102 15.364 160.431 15.468C160.76 15.5547 161.046 15.7193 161.289 15.962C161.549 16.2047 161.722 16.4907 161.809 16.82C162.416 18.8307 162.771 20.0873 162.875 20.59C162.996 21.11 163.213 22.306 163.525 24.178C163.768 23.7447 164.236 22.7913 164.929 21.318C165.137 20.8847 165.423 20.278 165.787 19.498C166.168 18.7007 166.428 18.146 166.567 17.834C167 16.9153 167.26 16.326 167.347 16.066Z" fill="url(#paint0_linear_0_1)"/>
<path d="M62.484 11.932C62.484 10.8227 62.51 9.96467 62.562 9.358C62.6486 8.162 62.8653 7.26933 63.212 6.68C63.42 6.35067 63.706 6.15133 64.07 6.082C64.434 5.99533 64.772 6.04733 65.084 6.238C66.0893 5.99533 67.112 5.952 68.152 6.108C69.192 6.264 70.1713 6.576 71.09 7.044C72.0433 7.54667 72.7626 8.24 73.248 9.124C73.7506 9.99067 73.9846 10.9613 73.95 12.036C73.898 13.0933 73.638 14.1247 73.17 15.13C72.702 16.1353 72.0866 17.0367 71.324 17.834C70.7 18.4927 69.946 19.082 69.062 19.602C68.1953 20.122 67.32 20.486 66.436 20.694C66.4706 23.1553 66.514 25.374 66.566 27.35C66.566 27.8873 66.3666 28.3467 65.968 28.728C65.5866 29.1093 65.136 29.3 64.616 29.3C64.0786 29.3 63.6193 29.1093 63.238 28.728C62.874 28.3467 62.6833 27.8873 62.666 27.35C62.5966 23.866 62.5446 20.4427 62.51 17.08C62.4926 15.7453 62.484 14.0293 62.484 11.932ZM69.868 8.5C68.8626 8.032 67.5626 7.78933 65.968 7.772C66.0893 8.20533 66.176 8.786 66.228 9.514C66.2626 10.1727 66.2886 11.022 66.306 12.062C66.358 14.766 66.384 16.4387 66.384 17.08C66.384 17.184 66.384 17.34 66.384 17.548C66.4013 17.7387 66.41 17.886 66.41 17.99C66.9646 17.834 67.372 17.6953 67.632 17.574C68.3773 17.2273 69.0533 16.82 69.66 16.352C71.0813 15.208 71.8786 13.8473 72.052 12.27C72.2253 10.502 71.4973 9.24533 69.868 8.5Z" fill="url(#paint1_linear_0_1)"/>
<path d="M138.838 6.108C140.051 6.42 141.169 6.97467 142.192 7.772C143.492 8.76 144.471 9.99933 145.13 11.49C145.806 12.9633 146.135 14.4973 146.118 16.092C146.101 17.6867 145.797 19.2553 145.208 20.798C144.203 23.4327 142.738 25.4867 140.814 26.96C139.618 27.8787 138.058 28.6847 136.134 29.378C135.753 29.5167 135.406 29.4907 135.094 29.3C135.025 29.3 134.99 29.3 134.99 29.3C134.453 29.3 133.993 29.1093 133.612 28.728C133.248 28.3467 133.057 27.8873 133.04 27.35C132.971 23.866 132.919 20.4427 132.884 17.08C132.867 15.7453 132.858 14.0293 132.858 11.932C132.858 10.8227 132.884 9.96467 132.936 9.358C133.023 8.162 133.239 7.26933 133.586 6.68C133.759 6.38533 134.011 6.19467 134.34 6.108C134.669 6.004 134.973 6.01267 135.25 6.134C135.753 5.94333 136.281 5.848 136.836 5.848C137.477 5.848 138.145 5.93467 138.838 6.108ZM144.09 13.622C143.795 12.374 143.258 11.2733 142.478 10.32C141.715 9.34933 140.788 8.604 139.696 8.084C138.604 7.54667 137.425 7.26067 136.16 7.226C136.368 7.76333 136.507 8.526 136.576 9.514C136.628 10.1727 136.663 11.022 136.68 12.062C136.732 14.766 136.758 16.4387 136.758 17.08C136.793 19.9747 136.845 23.0427 136.914 26.284C138.075 25.8853 139.046 25.4 139.826 24.828C141.473 23.5973 142.703 21.916 143.518 19.784C144.35 17.652 144.541 15.598 144.09 13.622Z" fill="url(#paint2_linear_0_1)"/>
<path d="M109.305 33.7912C109.166 33.7912 109.049 33.7432 108.953 33.6472C108.857 33.5512 108.809 33.4339 108.809 33.2952C108.809 33.1565 108.857 33.0392 108.953 32.9432C109.049 32.8472 109.166 32.7992 109.305 32.7992C109.438 32.7992 109.55 32.8472 109.641 32.9432C109.737 33.0392 109.785 33.1565 109.785 33.2952C109.785 33.4339 109.737 33.5512 109.641 33.6472C109.55 33.7432 109.438 33.7912 109.305 33.7912ZM109.657 34.5032V38.8872H108.929V34.5032H109.657ZM117.033 34.4232C117.567 34.4232 117.999 34.5859 118.329 34.9112C118.66 35.2312 118.825 35.6952 118.825 36.3032V38.8872H118.105V36.4072C118.105 35.9699 117.996 35.6365 117.777 35.4072C117.559 35.1725 117.26 35.0552 116.881 35.0552C116.497 35.0552 116.191 35.1752 115.961 35.4152C115.737 35.6552 115.625 36.0045 115.625 36.4632V38.8872H114.897V34.5032H115.625V35.1272C115.769 34.9032 115.964 34.7299 116.209 34.6072C116.46 34.4845 116.735 34.4232 117.033 34.4232ZM125.798 35.1032H124.878V38.8872H124.15V35.1032H123.582V34.5032H124.15V34.1912C124.15 33.7005 124.276 33.3432 124.526 33.1192C124.782 32.8899 125.19 32.7752 125.75 32.7752V33.3832C125.43 33.3832 125.204 33.4472 125.07 33.5752C124.942 33.6979 124.878 33.9032 124.878 34.1912V34.5032H125.798V35.1032ZM132.559 38.9592C132.149 38.9592 131.775 38.8659 131.439 38.6792C131.109 38.4925 130.847 38.2285 130.655 37.8872C130.469 37.5405 130.375 37.1405 130.375 36.6872C130.375 36.2392 130.471 35.8445 130.663 35.5032C130.861 35.1565 131.127 34.8925 131.463 34.7112C131.799 34.5245 132.175 34.4312 132.591 34.4312C133.007 34.4312 133.383 34.5245 133.719 34.7112C134.055 34.8925 134.319 35.1539 134.511 35.4952C134.709 35.8365 134.807 36.2339 134.807 36.6872C134.807 37.1405 134.706 37.5405 134.503 37.8872C134.306 38.2285 134.037 38.4925 133.695 38.6792C133.354 38.8659 132.975 38.9592 132.559 38.9592ZM132.559 38.3192C132.821 38.3192 133.066 38.2579 133.295 38.1352C133.525 38.0125 133.709 37.8285 133.847 37.5832C133.991 37.3379 134.063 37.0392 134.063 36.6872C134.063 36.3352 133.994 36.0365 133.855 35.7912C133.717 35.5459 133.535 35.3645 133.311 35.2472C133.087 35.1245 132.845 35.0632 132.583 35.0632C132.317 35.0632 132.071 35.1245 131.847 35.2472C131.629 35.3645 131.453 35.5459 131.319 35.7912C131.186 36.0365 131.119 36.3352 131.119 36.6872C131.119 37.0445 131.183 37.3459 131.311 37.5912C131.445 37.8365 131.621 38.0205 131.839 38.1432C132.058 38.2605 132.298 38.3192 132.559 38.3192ZM140.652 35.1032V37.6872C140.652 37.9005 140.698 38.0525 140.788 38.1432C140.879 38.2285 141.036 38.2712 141.26 38.2712H141.796V38.8872H141.14C140.735 38.8872 140.431 38.7939 140.228 38.6072C140.026 38.4205 139.924 38.1139 139.924 37.6872V35.1032H139.356V34.5032H139.924V33.3992H140.652V34.5032H141.796V35.1032H140.652ZM150.679 36.5272C150.679 36.6659 150.671 36.8125 150.655 36.9672H147.151C147.177 37.3992 147.324 37.7379 147.591 37.9832C147.863 38.2232 148.191 38.3432 148.575 38.3432C148.889 38.3432 149.151 38.2712 149.359 38.1272C149.572 37.9779 149.721 37.7805 149.807 37.5352H150.591C150.473 37.9565 150.239 38.3005 149.887 38.5672C149.535 38.8285 149.097 38.9592 148.575 38.9592C148.159 38.9592 147.785 38.8659 147.455 38.6792C147.129 38.4925 146.873 38.2285 146.687 37.8872C146.5 37.5405 146.407 37.1405 146.407 36.6872C146.407 36.2339 146.497 35.8365 146.679 35.4952C146.86 35.1539 147.113 34.8925 147.439 34.7112C147.769 34.5245 148.148 34.4312 148.575 34.4312C148.991 34.4312 149.359 34.5219 149.679 34.7032C149.999 34.8845 150.244 35.1352 150.415 35.4552C150.591 35.7699 150.679 36.1272 150.679 36.5272ZM149.927 36.3752C149.927 36.0979 149.865 35.8605 149.743 35.6632C149.62 35.4605 149.452 35.3085 149.239 35.2072C149.031 35.1005 148.799 35.0472 148.543 35.0472C148.175 35.0472 147.86 35.1645 147.599 35.3992C147.343 35.6339 147.196 35.9592 147.159 36.3752H149.927ZM155.367 36.6872C155.367 36.2339 155.458 35.8392 155.639 35.5032C155.821 35.1619 156.071 34.8979 156.391 34.7112C156.717 34.5245 157.087 34.4312 157.503 34.4312C158.042 34.4312 158.485 34.5619 158.831 34.8232C159.183 35.0845 159.415 35.4472 159.527 35.9112H158.743C158.669 35.6445 158.522 35.4339 158.303 35.2792C158.09 35.1245 157.823 35.0472 157.503 35.0472C157.087 35.0472 156.751 35.1912 156.495 35.4792C156.239 35.7619 156.111 36.1645 156.111 36.6872C156.111 37.2152 156.239 37.6232 156.495 37.9112C156.751 38.1992 157.087 38.3432 157.503 38.3432C157.823 38.3432 158.09 38.2685 158.303 38.1192C158.517 37.9699 158.663 37.7565 158.743 37.4792H159.527C159.41 37.9272 159.175 38.2872 158.823 38.5592C158.471 38.8259 158.031 38.9592 157.503 38.9592C157.087 38.9592 156.717 38.8659 156.391 38.6792C156.071 38.4925 155.821 38.2285 155.639 37.8872C155.458 37.5459 155.367 37.1459 155.367 36.6872ZM166.675 34.4232C167.005 34.4232 167.304 34.4952 167.571 34.6392C167.837 34.7779 168.045 34.9885 168.195 35.2712C168.349 35.5539 168.427 35.8979 168.427 36.3032V38.8872H167.707V36.4072C167.707 35.9699 167.597 35.6365 167.379 35.4072C167.16 35.1725 166.861 35.0552 166.483 35.0552C166.099 35.0552 165.792 35.1752 165.563 35.4152C165.339 35.6552 165.227 36.0045 165.227 36.4632V38.8872H164.499V32.9672H165.227V35.1272C165.371 34.9032 165.568 34.7299 165.819 34.6072C166.075 34.4845 166.36 34.4232 166.675 34.4232Z" fill="black" fill-opacity="0.7"/>
<g clip-path="url(#clip0_0_1)">
<path d="M13.3668 29.2613C12.898 29.7377 12.2857 29.9771 11.6734 29.9771C11.0611 29.9771 10.4512 29.7377 9.98236 29.2613L0.699614 19.7803C0.453254 19.5287 0.269082 19.2331 0.151882 18.918C0.135139 18.874 0.120788 18.8276 0.106437 18.7812C0.0705594 18.6566 0.0418573 18.532 0.0251144 18.405C-0.00837145 18.1753 -0.00837145 17.9432 0.0251144 17.7112C0.0442491 17.5841 0.0705594 17.4595 0.106437 17.335C0.120788 17.2885 0.135139 17.2446 0.151882 17.1982C0.269082 16.883 0.453254 16.5874 0.699614 16.3358L0.826382 16.2063L4.39741 12.5615C3.29955 13.6828 3.29955 15.5028 4.39741 16.6241L5.78946 18.0483L5.77989 18.0581L13.3668 25.807C14.2996 26.7598 14.2996 28.3086 13.3668 29.2613Z" fill="url(#paint3_linear_0_1)"/>
<path d="M13.3673 10.3114L5.78997 18.0481L4.39792 16.6239C3.30006 15.5026 3.30006 13.6826 4.39792 12.5613L9.98287 6.85464C10.9181 5.9019 12.4321 5.9019 13.3673 6.85464C14.3002 7.80983 14.3002 9.3562 13.3673 10.3114Z" fill="url(#paint4_linear_0_1)"/>
<path d="M0.836713 19.9196C0.791268 19.878 0.745823 19.8365 0.700378 19.7901C0.415748 19.4994 0.217225 19.1501 0.107201 18.7812C0.219617 19.1476 0.41814 19.4921 0.700378 19.7803L0.836713 19.9196Z" fill="#00AEEF"/>
<path d="M39.591 29.2613C40.0598 29.7377 40.6721 29.9771 41.2844 29.9771C41.8967 29.9771 42.5067 29.7377 42.9755 29.2613L52.2582 19.7803C52.5046 19.5287 52.6887 19.2331 52.8059 18.918C52.8227 18.874 52.837 18.8276 52.8514 18.7812C52.8873 18.6566 52.916 18.532 52.9327 18.405C52.9662 18.1753 52.9662 17.9432 52.9327 17.7112C52.9136 17.5841 52.8873 17.4595 52.8514 17.335C52.837 17.2885 52.8227 17.2446 52.8059 17.1982C52.6887 16.883 52.5046 16.5874 52.2582 16.3358L52.1314 16.2063L48.5604 12.5615C49.6583 13.6828 49.6583 15.5028 48.5604 16.6241L47.1684 18.0483L47.1779 18.0581L39.591 25.807C38.6582 26.7598 38.6582 28.3086 39.591 29.2613Z" fill="url(#paint5_linear_0_1)"/>
<path d="M39.591 10.3114L47.1684 18.0481L48.5604 16.6239C49.6583 15.5026 49.6583 13.6826 48.5604 12.5613L42.9755 6.85464C42.0403 5.9019 40.5262 5.9019 39.591 6.85464C38.6582 7.80983 38.6582 9.3562 39.591 10.3114Z" fill="url(#paint6_linear_0_1)"/>
<path d="M52.1219 19.9196C52.1674 19.878 52.2128 19.8365 52.2582 19.7901C52.5429 19.4994 52.7414 19.15 52.8514 18.7812C52.739 19.1476 52.5405 19.4921 52.2582 19.7803L52.1219 19.9196Z" fill="#00AEEF"/>
<path d="M16.7799 17.7258C17.244 18.1826 17.8443 18.4098 18.4399 18.4098C19.0665 18.4098 19.6932 18.1606 20.162 17.6623L33.0803 4.1358C33.9964 3.16596 33.9701 1.61959 33.0182 0.681506C32.1212 -0.202833 30.7196 -0.224819 29.794 0.593561C29.7389 0.642419 29.6863 0.691277 29.6361 0.745022L21.279 9.46871L16.7225 14.2691C15.8041 15.2389 15.8328 16.7853 16.7823 17.7234L16.7799 17.7258Z" fill="url(#paint7_linear_0_1)"/>
<path d="M19.925 35.4246C20.3891 35.8814 20.9894 36.1086 21.585 36.1086C22.2116 36.1086 22.8383 35.8595 23.3071 35.3611L36.2255 21.8346C37.1415 20.8648 37.1152 19.3184 36.1633 18.3803C35.2663 17.496 33.8647 17.474 32.9391 18.2924C32.884 18.3413 32.8314 18.3901 32.7812 18.4439L24.4241 27.1675L19.8676 31.9679C18.9492 32.9377 18.9779 34.4841 19.9274 35.4222L19.925 35.4246Z" fill="url(#paint8_linear_0_1)"/>
</g>
<defs>
<linearGradient id="paint0_linear_0_1" x1="115.126" y1="9" x2="115.126" y2="34" gradientUnits="userSpaceOnUse">
<stop stop-color="#5FB2ED"/>
<stop offset="1" stop-color="#6058E1"/>
</linearGradient>
<linearGradient id="paint1_linear_0_1" x1="72.5" y1="7.5" x2="57.3863" y2="20.2568" gradientUnits="userSpaceOnUse">
<stop stop-color="#6018D7"/>
<stop offset="1" stop-color="#9547F0"/>
</linearGradient>
<linearGradient id="paint2_linear_0_1" x1="144.5" y1="9" x2="130.235" y2="23.2202" gradientUnits="userSpaceOnUse">
<stop stop-color="#6018D7"/>
<stop offset="1" stop-color="#9547F0"/>
</linearGradient>
<linearGradient id="paint3_linear_0_1" x1="2" y1="17" x2="11.5" y2="30" gradientUnits="userSpaceOnUse">
<stop stop-color="#5C80FC"/>
<stop offset="1" stop-color="#60B7EC"/>
</linearGradient>
<linearGradient id="paint4_linear_0_1" x1="4.0003" y1="15.4999" x2="14.0003" y2="12" gradientUnits="userSpaceOnUse">
<stop stop-color="#6018D7"/>
<stop offset="1" stop-color="#9547F0"/>
</linearGradient>
<linearGradient id="paint5_linear_0_1" x1="49.9998" y1="18.0002" x2="41.8718" y2="29.5586" gradientUnits="userSpaceOnUse">
<stop stop-color="#6018D7"/>
<stop offset="1" stop-color="#9547F0"/>
</linearGradient>
<linearGradient id="paint6_linear_0_1" x1="43.9998" y1="13.0002" x2="40.1077" y2="5.67711" gradientUnits="userSpaceOnUse">
<stop stop-color="#5C80FC"/>
<stop offset="1" stop-color="#60B7EC"/>
</linearGradient>
<linearGradient id="paint7_linear_0_1" x1="22.9998" y1="19.0001" x2="27.9558" y2="4.47331" gradientUnits="userSpaceOnUse">
<stop stop-color="#6018D7"/>
<stop offset="1" stop-color="#60B1EE"/>
</linearGradient>
<linearGradient id="paint8_linear_0_1" x1="31.5003" y1="18.0002" x2="26.5132" y2="27.5302" gradientUnits="userSpaceOnUse">
<stop stop-color="#6018D7"/>
<stop offset="1" stop-color="#9547F0"/>
</linearGradient>
<clipPath id="clip0_0_1">
<rect width="54.1633" height="36.1089" fill="white"/>
</clipPath>
</defs>
</svg>
